<?xml version="1.0" encoding="UTF-8" standalone="no"?>
<!DOCTYPE svg PUBLIC "-//W3C//DTD SVG 1.1//EN"
 "http://www.w3.org/Graphics/SVG/1.1/DTD/svg11.dtd">
<!-- Generated by graphviz version 6.0.2 (20221011.1828)
 -->
<!-- Title: List Pages: 1 -->
<svg width="2103pt" height="875pt"
 viewBox="0.00 0.00 2102.50 875.00" xmlns="http://www.w3.org/2000/svg" xmlns:xlink="http://www.w3.org/1999/xlink">
<g id="graph0" class="graph" transform="scale(1 1) rotate(0) translate(4 871)">
<title>List</title>
<polygon fill="black" stroke="none" points="-4,4 -4,-871 2098.5,-871 2098.5,4 -4,4"/>
<!-- node009A4300 -->
<g id="node1" class="node">
<title>node009A4300</title>
<path fill="pink" stroke="black" d="M469.5,-774.5C469.5,-774.5 750.5,-774.5 750.5,-774.5 756.5,-774.5 762.5,-780.5 762.5,-786.5 762.5,-786.5 762.5,-854.5 762.5,-854.5 762.5,-860.5 756.5,-866.5 750.5,-866.5 750.5,-866.5 469.5,-866.5 469.5,-866.5 463.5,-866.5 457.5,-860.5 457.5,-854.5 457.5,-854.5 457.5,-786.5 457.5,-786.5 457.5,-780.5 463.5,-774.5 469.5,-774.5"/>
<text text-anchor="middle" x="482.5" y="-816.8" font-family="Times New Roman,serif" font-size="14.00">data: ;</text>
<polyline fill="none" stroke="black" points="507.5,-774.5 507.5,-866.5"/>
<text text-anchor="middle" x="575.5" y="-816.8" font-family="Times New Roman,serif" font-size="14.00">type : END OF LINE</text>
<polyline fill="none" stroke="black" points="643.5,-774.5 643.5,-866.5"/>
<text text-anchor="middle" x="703" y="-851.3" font-family="Times New Roman,serif" font-size="14.00">parent: 00000000</text>
<polyline fill="none" stroke="black" points="643.5,-843.5 762.5,-843.5"/>
<text text-anchor="middle" x="703" y="-828.3" font-family="Times New Roman,serif" font-size="14.00">pointer: 009A4300</text>
<polyline fill="none" stroke="black" points="643.5,-820.5 762.5,-820.5"/>
<text text-anchor="middle" x="703" y="-805.3" font-family="Times New Roman,serif" font-size="14.00">left: 009A4360</text>
<polyline fill="none" stroke="black" points="643.5,-797.5 762.5,-797.5"/>
<text text-anchor="middle" x="703" y="-782.3" font-family="Times New Roman,serif" font-size="14.00">right: 009A43F0</text>
</g>
<!-- node009A4360 -->
<g id="node2" class="node">
<title>node009A4360</title>
<path fill="lightgreen" stroke="black" d="M321.5,-645.5C321.5,-645.5 584.5,-645.5 584.5,-645.5 590.5,-645.5 596.5,-651.5 596.5,-657.5 596.5,-657.5 596.5,-725.5 596.5,-725.5 596.5,-731.5 590.5,-737.5 584.5,-737.5 584.5,-737.5 321.5,-737.5 321.5,-737.5 315.5,-737.5 309.5,-731.5 309.5,-725.5 309.5,-725.5 309.5,-657.5 309.5,-657.5 309.5,-651.5 315.5,-645.5 321.5,-645.5"/>
<text text-anchor="middle" x="344.5" y="-687.8" font-family="Times New Roman,serif" font-size="14.00">data: plus</text>
<polyline fill="none" stroke="black" points="379.5,-645.5 379.5,-737.5"/>
<text text-anchor="middle" x="428.5" y="-710.8" font-family="Times New Roman,serif" font-size="14.00">type : operator</text>
<polyline fill="none" stroke="black" points="379.5,-691.5 477.5,-691.5"/>
<text text-anchor="middle" x="428.5" y="-664.8" font-family="Times New Roman,serif" font-size="14.00">op_code : 1</text>
<polyline fill="none" stroke="black" points="477.5,-645.5 477.5,-737.5"/>
<text text-anchor="middle" x="537" y="-722.3" font-family="Times New Roman,serif" font-size="14.00">parent: 009A4300</text>
<polyline fill="none" stroke="black" points="477.5,-714.5 596.5,-714.5"/>
<text text-anchor="middle" x="537" y="-699.3" font-family="Times New Roman,serif" font-size="14.00">pointer: 009A4360</text>
<polyline fill="none" stroke="black" points="477.5,-691.5 596.5,-691.5"/>
<text text-anchor="middle" x="537" y="-676.3" font-family="Times New Roman,serif" font-size="14.00">left: 009A4340</text>
<polyline fill="none" stroke="black" points="477.5,-668.5 596.5,-668.5"/>
<text text-anchor="middle" x="537" y="-653.3" font-family="Times New Roman,serif" font-size="14.00">right: 009A43A0</text>
</g>
<!-- node009A4300&#45;&gt;node009A4360 -->
<g id="edge1" class="edge">
<title>node009A4300&#45;&gt;node009A4360</title>
<path fill="none" stroke="red" d="M547.71,-774.37C535.36,-764.6 522.45,-754.2 510.27,-744.2"/>
<polygon fill="red" stroke="red" points="512.33,-741.36 502.38,-737.7 507.87,-746.76 512.33,-741.36"/>
</g>
<!-- node009A43F0 -->
<g id="node7" class="node">
<title>node009A43F0</title>
<path fill="pink" stroke="black" d="M746.5,-645.5C746.5,-645.5 1029.5,-645.5 1029.5,-645.5 1035.5,-645.5 1041.5,-651.5 1041.5,-657.5 1041.5,-657.5 1041.5,-725.5 1041.5,-725.5 1041.5,-731.5 1035.5,-737.5 1029.5,-737.5 1029.5,-737.5 746.5,-737.5 746.5,-737.5 740.5,-737.5 734.5,-731.5 734.5,-725.5 734.5,-725.5 734.5,-657.5 734.5,-657.5 734.5,-651.5 740.5,-645.5 746.5,-645.5"/>
<text text-anchor="middle" x="759.5" y="-687.8" font-family="Times New Roman,serif" font-size="14.00">data: ;</text>
<polyline fill="none" stroke="black" points="784.5,-645.5 784.5,-737.5"/>
<text text-anchor="middle" x="852.5" y="-687.8" font-family="Times New Roman,serif" font-size="14.00">type : END OF LINE</text>
<polyline fill="none" stroke="black" points="920.5,-645.5 920.5,-737.5"/>
<text text-anchor="middle" x="981" y="-722.3" font-family="Times New Roman,serif" font-size="14.00">parent: 009A4300</text>
<polyline fill="none" stroke="black" points="920.5,-714.5 1041.5,-714.5"/>
<text text-anchor="middle" x="981" y="-699.3" font-family="Times New Roman,serif" font-size="14.00">pointer: 009A43F0</text>
<polyline fill="none" stroke="black" points="920.5,-691.5 1041.5,-691.5"/>
<text text-anchor="middle" x="981" y="-676.3" font-family="Times New Roman,serif" font-size="14.00">left: 009A4430</text>
<polyline fill="none" stroke="black" points="920.5,-668.5 1041.5,-668.5"/>
<text text-anchor="middle" x="981" y="-653.3" font-family="Times New Roman,serif" font-size="14.00">right: 009A4498</text>
</g>
<!-- node009A4300&#45;&gt;node009A43F0 -->
<g id="edge2" class="edge">
<title>node009A4300&#45;&gt;node009A43F0</title>
<path fill="none" stroke="red" d="M702.3,-774.37C725.01,-763.86 749.59,-752.61 773.21,-741.92"/>
<polygon fill="red" stroke="red" points="774.89,-745.01 782.56,-737.7 772.01,-738.63 774.89,-745.01"/>
</g>
<!-- node009A4360&#45;&gt;node009A4300 -->
<g id="edge4" class="edge">
<title>node009A4360&#45;&gt;node009A4300</title>
<path fill="none" stroke="yellow" d="M515.37,-737.7C527.73,-747.47 540.64,-757.87 552.82,-767.87"/>
<polygon fill="yellow" stroke="yellow" points="550.76,-770.71 560.7,-774.37 555.21,-765.3 550.76,-770.71"/>
</g>
<!-- node009A4340 -->
<g id="node3" class="node">
<title>node009A4340</title>
<path fill="pink" stroke="black" d="M35,-516.5C35,-516.5 277,-516.5 277,-516.5 283,-516.5 289,-522.5 289,-528.5 289,-528.5 289,-596.5 289,-596.5 289,-602.5 283,-608.5 277,-608.5 277,-608.5 35,-608.5 35,-608.5 29,-608.5 23,-602.5 23,-596.5 23,-596.5 23,-528.5 23,-528.5 23,-522.5 29,-516.5 35,-516.5"/>
<text text-anchor="middle" x="49.5" y="-558.8" font-family="Times New Roman,serif" font-size="14.00">data: 0</text>
<polyline fill="none" stroke="black" points="76,-516.5 76,-608.5"/>
<text text-anchor="middle" x="123" y="-558.8" font-family="Times New Roman,serif" font-size="14.00">type : variable</text>
<polyline fill="none" stroke="black" points="170,-516.5 170,-608.5"/>
<text text-anchor="middle" x="229.5" y="-593.3" font-family="Times New Roman,serif" font-size="14.00">parent: 009A4360</text>
<polyline fill="none" stroke="black" points="170,-585.5 289,-585.5"/>
<text text-anchor="middle" x="229.5" y="-570.3" font-family="Times New Roman,serif" font-size="14.00">pointer: 009A4340</text>
<polyline fill="none" stroke="black" points="170,-562.5 289,-562.5"/>
<text text-anchor="middle" x="229.5" y="-547.3" font-family="Times New Roman,serif" font-size="14.00">left: 00000000</text>
<polyline fill="none" stroke="black" points="170,-539.5 289,-539.5"/>
<text text-anchor="middle" x="229.5" y="-524.3" font-family="Times New Roman,serif" font-size="14.00">right: 00000000</text>
</g>
<!-- node009A4360&#45;&gt;node009A4340 -->
<g id="edge3" class="edge">
<title>node009A4360&#45;&gt;node009A4340</title>
<path fill="none" stroke="red" d="M340.96,-645.37C315.97,-634.81 289.51,-623.51 264.65,-612.78"/>
<polygon fill="red" stroke="red" points="265.78,-609.46 255.21,-608.7 263,-615.88 265.78,-609.46"/>
</g>
<!-- node009A43A0 -->
<g id="node4" class="node">
<title>node009A43A0</title>
<path fill="lightgreen" stroke="black" d="M319.5,-516.5C319.5,-516.5 586.5,-516.5 586.5,-516.5 592.5,-516.5 598.5,-522.5 598.5,-528.5 598.5,-528.5 598.5,-596.5 598.5,-596.5 598.5,-602.5 592.5,-608.5 586.5,-608.5 586.5,-608.5 319.5,-608.5 319.5,-608.5 313.5,-608.5 307.5,-602.5 307.5,-596.5 307.5,-596.5 307.5,-528.5 307.5,-528.5 307.5,-522.5 313.5,-516.5 319.5,-516.5"/>
<text text-anchor="middle" x="343" y="-558.8" font-family="Times New Roman,serif" font-size="14.00">data: mult</text>
<polyline fill="none" stroke="black" points="378.5,-516.5 378.5,-608.5"/>
<text text-anchor="middle" x="427.5" y="-581.8" font-family="Times New Roman,serif" font-size="14.00">type : operator</text>
<polyline fill="none" stroke="black" points="378.5,-562.5 476.5,-562.5"/>
<text text-anchor="middle" x="427.5" y="-535.8" font-family="Times New Roman,serif" font-size="14.00">op_code : 3</text>
<polyline fill="none" stroke="black" points="476.5,-516.5 476.5,-608.5"/>
<text text-anchor="middle" x="537.5" y="-593.3" font-family="Times New Roman,serif" font-size="14.00">parent: 009A4360</text>
<polyline fill="none" stroke="black" points="476.5,-585.5 598.5,-585.5"/>
<text text-anchor="middle" x="537.5" y="-570.3" font-family="Times New Roman,serif" font-size="14.00">pointer: 009A43A0</text>
<polyline fill="none" stroke="black" points="476.5,-562.5 598.5,-562.5"/>
<text text-anchor="middle" x="537.5" y="-547.3" font-family="Times New Roman,serif" font-size="14.00">left: 009A4380</text>
<polyline fill="none" stroke="black" points="476.5,-539.5 598.5,-539.5"/>
<text text-anchor="middle" x="537.5" y="-524.3" font-family="Times New Roman,serif" font-size="14.00">right: 009A43D0</text>
</g>
<!-- node009A4360&#45;&gt;node009A43A0 -->
<g id="edge5" class="edge">
<title>node009A4360&#45;&gt;node009A43A0</title>
<path fill="none" stroke="red" d="M446.51,-645.37C446.26,-636.86 446.19,-627.87 446.3,-619.09"/>
<polygon fill="red" stroke="red" points="449.8,-618.98 446.5,-608.92 442.8,-618.84 449.8,-618.98"/>
</g>
<!-- node009A4340&#45;&gt;node009A4360 -->
<g id="edge6" class="edge">
<title>node009A4340&#45;&gt;node009A4360</title>
<path fill="none" stroke="yellow" d="M267.95,-608.59C293.01,-619.18 319.56,-630.52 344.48,-641.27"/>
<polygon fill="yellow" stroke="yellow" points="343.38,-644.61 353.95,-645.37 346.15,-638.19 343.38,-644.61"/>
</g>
<!-- node009A43A0&#45;&gt;node009A4360 -->
<g id="edge8" class="edge">
<title>node009A43A0&#45;&gt;node009A4360</title>
<path fill="none" stroke="yellow" d="M459.5,-608.92C459.74,-617.43 459.81,-626.42 459.7,-635.2"/>
<polygon fill="yellow" stroke="yellow" points="456.2,-635.3 459.49,-645.37 463.2,-635.44 456.2,-635.3"/>
</g>
<!-- node009A4380 -->
<g id="node5" class="node">
<title>node009A4380</title>
<path fill="lightblue" stroke="black" d="M12,-387.5C12,-387.5 288,-387.5 288,-387.5 294,-387.5 300,-393.5 300,-399.5 300,-399.5 300,-467.5 300,-467.5 300,-473.5 294,-479.5 288,-479.5 288,-479.5 12,-479.5 12,-479.5 6,-479.5 0,-473.5 0,-467.5 0,-467.5 0,-399.5 0,-399.5 0,-393.5 6,-387.5 12,-387.5"/>
<text text-anchor="middle" x="26.5" y="-429.8" font-family="Times New Roman,serif" font-size="14.00">data: 1</text>
<polyline fill="none" stroke="black" points="53,-387.5 53,-479.5"/>
<text text-anchor="middle" x="117" y="-429.8" font-family="Times New Roman,serif" font-size="14.00">type : const number</text>
<polyline fill="none" stroke="black" points="181,-387.5 181,-479.5"/>
<text text-anchor="middle" x="240.5" y="-464.3" font-family="Times New Roman,serif" font-size="14.00">parent: 009A43A0</text>
<polyline fill="none" stroke="black" points="181,-456.5 300,-456.5"/>
<text text-anchor="middle" x="240.5" y="-441.3" font-family="Times New Roman,serif" font-size="14.00">pointer: 009A4380</text>
<polyline fill="none" stroke="black" points="181,-433.5 300,-433.5"/>
<text text-anchor="middle" x="240.5" y="-418.3" font-family="Times New Roman,serif" font-size="14.00">left: 00000000</text>
<polyline fill="none" stroke="black" points="181,-410.5 300,-410.5"/>
<text text-anchor="middle" x="240.5" y="-395.3" font-family="Times New Roman,serif" font-size="14.00">right: 00000000</text>
</g>
<!-- node009A43A0&#45;&gt;node009A4380 -->
<g id="edge7" class="edge">
<title>node009A43A0&#45;&gt;node009A4380</title>
<path fill="none" stroke="red" d="M338.83,-516.37C313.15,-505.73 285.94,-494.34 260.42,-483.54"/>
<polygon fill="red" stroke="red" points="261.67,-480.27 251.1,-479.59 258.94,-486.72 261.67,-480.27"/>
</g>
<!-- node009A43D0 -->
<g id="node6" class="node">
<title>node009A43D0</title>
<path fill="pink" stroke="black" d="M330.5,-387.5C330.5,-387.5 575.5,-387.5 575.5,-387.5 581.5,-387.5 587.5,-393.5 587.5,-399.5 587.5,-399.5 587.5,-467.5 587.5,-467.5 587.5,-473.5 581.5,-479.5 575.5,-479.5 575.5,-479.5 330.5,-479.5 330.5,-479.5 324.5,-479.5 318.5,-473.5 318.5,-467.5 318.5,-467.5 318.5,-399.5 318.5,-399.5 318.5,-393.5 324.5,-387.5 330.5,-387.5"/>
<text text-anchor="middle" x="345" y="-429.8" font-family="Times New Roman,serif" font-size="14.00">data: 1</text>
<polyline fill="none" stroke="black" points="371.5,-387.5 371.5,-479.5"/>
<text text-anchor="middle" x="418.5" y="-429.8" font-family="Times New Roman,serif" font-size="14.00">type : variable</text>
<polyline fill="none" stroke="black" points="465.5,-387.5 465.5,-479.5"/>
<text text-anchor="middle" x="526.5" y="-464.3" font-family="Times New Roman,serif" font-size="14.00">parent: 009A43A0</text>
<polyline fill="none" stroke="black" points="465.5,-456.5 587.5,-456.5"/>
<text text-anchor="middle" x="526.5" y="-441.3" font-family="Times New Roman,serif" font-size="14.00">pointer: 009A43D0</text>
<polyline fill="none" stroke="black" points="465.5,-433.5 587.5,-433.5"/>
<text text-anchor="middle" x="526.5" y="-418.3" font-family="Times New Roman,serif" font-size="14.00">left: 00000000</text>
<polyline fill="none" stroke="black" points="465.5,-410.5 587.5,-410.5"/>
<text text-anchor="middle" x="526.5" y="-395.3" font-family="Times New Roman,serif" font-size="14.00">right: 00000000</text>
</g>
<!-- node009A43A0&#45;&gt;node009A43D0 -->
<g id="edge9" class="edge">
<title>node009A43A0&#45;&gt;node009A43D0</title>
<path fill="none" stroke="red" d="M446.51,-516.37C446.26,-507.86 446.19,-498.87 446.3,-490.09"/>
<polygon fill="red" stroke="red" points="449.8,-489.98 446.5,-479.92 442.8,-489.84 449.8,-489.98"/>
</g>
<!-- node009A4380&#45;&gt;node009A43A0 -->
<g id="edge10" class="edge">
<title>node009A4380&#45;&gt;node009A43A0</title>
<path fill="none" stroke="yellow" d="M264.08,-479.59C289.76,-490.23 316.96,-501.62 342.49,-512.42"/>
<polygon fill="yellow" stroke="yellow" points="341.24,-515.69 351.81,-516.37 343.97,-509.24 341.24,-515.69"/>
</g>
<!-- node009A43D0&#45;&gt;node009A43A0 -->
<g id="edge11" class="edge">
<title>node009A43D0&#45;&gt;node009A43A0</title>
<path fill="none" stroke="yellow" d="M459.5,-479.92C459.74,-488.43 459.81,-497.42 459.7,-506.2"/>
<polygon fill="yellow" stroke="yellow" points="456.2,-506.3 459.49,-516.37 463.2,-506.44 456.2,-506.3"/>
</g>
<!-- node009A43F0&#45;&gt;node009A4300 -->
<g id="edge13" class="edge">
<title>node009A43F0&#45;&gt;node009A4300</title>
<path fill="none" stroke="yellow" d="M795.55,-737.7C772.84,-748.22 748.25,-759.46 724.64,-770.15"/>
<polygon fill="yellow" stroke="yellow" points="722.96,-767.06 715.29,-774.37 725.84,-773.44 722.96,-767.06"/>
</g>
<!-- node009A4430 -->
<g id="node8" class="node">
<title>node009A4430</title>
<path fill="lightgreen" stroke="black" d="M751.5,-516.5C751.5,-516.5 1024.5,-516.5 1024.5,-516.5 1030.5,-516.5 1036.5,-522.5 1036.5,-528.5 1036.5,-528.5 1036.5,-596.5 1036.5,-596.5 1036.5,-602.5 1030.5,-608.5 1024.5,-608.5 1024.5,-608.5 751.5,-608.5 751.5,-608.5 745.5,-608.5 739.5,-602.5 739.5,-596.5 739.5,-596.5 739.5,-528.5 739.5,-528.5 739.5,-522.5 745.5,-516.5 751.5,-516.5"/>
<text text-anchor="middle" x="779.5" y="-558.8" font-family="Times New Roman,serif" font-size="14.00">data: minus</text>
<polyline fill="none" stroke="black" points="819.5,-516.5 819.5,-608.5"/>
<text text-anchor="middle" x="868.5" y="-581.8" font-family="Times New Roman,serif" font-size="14.00">type : operator</text>
<polyline fill="none" stroke="black" points="819.5,-562.5 917.5,-562.5"/>
<text text-anchor="middle" x="868.5" y="-535.8" font-family="Times New Roman,serif" font-size="14.00">op_code : 2</text>
<polyline fill="none" stroke="black" points="917.5,-516.5 917.5,-608.5"/>
<text text-anchor="middle" x="977" y="-593.3" font-family="Times New Roman,serif" font-size="14.00">parent: 009A43F0</text>
<polyline fill="none" stroke="black" points="917.5,-585.5 1036.5,-585.5"/>
<text text-anchor="middle" x="977" y="-570.3" font-family="Times New Roman,serif" font-size="14.00">pointer: 009A4430</text>
<polyline fill="none" stroke="black" points="917.5,-562.5 1036.5,-562.5"/>
<text text-anchor="middle" x="977" y="-547.3" font-family="Times New Roman,serif" font-size="14.00">left: 009A4410</text>
<polyline fill="none" stroke="black" points="917.5,-539.5 1036.5,-539.5"/>
<text text-anchor="middle" x="977" y="-524.3" font-family="Times New Roman,serif" font-size="14.00">right: 009A42D8</text>
</g>
<!-- node009A43F0&#45;&gt;node009A4430 -->
<g id="edge12" class="edge">
<title>node009A43F0&#45;&gt;node009A4430</title>
<path fill="none" stroke="red" d="M881.51,-645.37C881.26,-636.86 881.19,-627.87 881.3,-619.09"/>
<polygon fill="red" stroke="red" points="884.8,-618.98 881.5,-608.92 877.8,-618.84 884.8,-618.98"/>
</g>
<!-- node009A4498 -->
<g id="node11" class="node">
<title>node009A4498</title>
<path fill="pink" stroke="black" d="M1187.5,-516.5C1187.5,-516.5 1468.5,-516.5 1468.5,-516.5 1474.5,-516.5 1480.5,-522.5 1480.5,-528.5 1480.5,-528.5 1480.5,-596.5 1480.5,-596.5 1480.5,-602.5 1474.5,-608.5 1468.5,-608.5 1468.5,-608.5 1187.5,-608.5 1187.5,-608.5 1181.5,-608.5 1175.5,-602.5 1175.5,-596.5 1175.5,-596.5 1175.5,-528.5 1175.5,-528.5 1175.5,-522.5 1181.5,-516.5 1187.5,-516.5"/>
<text text-anchor="middle" x="1200.5" y="-558.8" font-family="Times New Roman,serif" font-size="14.00">data: ;</text>
<polyline fill="none" stroke="black" points="1225.5,-516.5 1225.5,-608.5"/>
<text text-anchor="middle" x="1293.5" y="-558.8" font-family="Times New Roman,serif" font-size="14.00">type : END OF LINE</text>
<polyline fill="none" stroke="black" points="1361.5,-516.5 1361.5,-608.5"/>
<text text-anchor="middle" x="1421" y="-593.3" font-family="Times New Roman,serif" font-size="14.00">parent: 009A43F0</text>
<polyline fill="none" stroke="black" points="1361.5,-585.5 1480.5,-585.5"/>
<text text-anchor="middle" x="1421" y="-570.3" font-family="Times New Roman,serif" font-size="14.00">pointer: 009A4498</text>
<polyline fill="none" stroke="black" points="1361.5,-562.5 1480.5,-562.5"/>
<text text-anchor="middle" x="1421" y="-547.3" font-family="Times New Roman,serif" font-size="14.00">left: 009A44D8</text>
<polyline fill="none" stroke="black" points="1361.5,-539.5 1480.5,-539.5"/>
<text text-anchor="middle" x="1421" y="-524.3" font-family="Times New Roman,serif" font-size="14.00">right: 009A04B0</text>
</g>
<!-- node009A43F0&#45;&gt;node009A4498 -->
<g id="edge14" class="edge">
<title>node009A43F0&#45;&gt;node009A4498</title>
<path fill="none" stroke="red" d="M1037.57,-645.46C1078.83,-633.45 1123.78,-620.47 1165.73,-608.47"/>
<polygon fill="red" stroke="red" points="1166.82,-611.79 1175.47,-605.68 1164.89,-605.06 1166.82,-611.79"/>
</g>
<!-- node009A4430&#45;&gt;node009A43F0 -->
<g id="edge16" class="edge">
<title>node009A4430&#45;&gt;node009A43F0</title>
<path fill="none" stroke="yellow" d="M894.5,-608.92C894.74,-617.43 894.81,-626.42 894.7,-635.2"/>
<polygon fill="yellow" stroke="yellow" points="891.2,-635.3 894.49,-645.37 898.2,-635.44 891.2,-635.3"/>
</g>
<!-- node009A4410 -->
<g id="node9" class="node">
<title>node009A4410</title>
<path fill="pink" stroke="black" d="M618,-387.5C618,-387.5 860,-387.5 860,-387.5 866,-387.5 872,-393.5 872,-399.5 872,-399.5 872,-467.5 872,-467.5 872,-473.5 866,-479.5 860,-479.5 860,-479.5 618,-479.5 618,-479.5 612,-479.5 606,-473.5 606,-467.5 606,-467.5 606,-399.5 606,-399.5 606,-393.5 612,-387.5 618,-387.5"/>
<text text-anchor="middle" x="632.5" y="-429.8" font-family="Times New Roman,serif" font-size="14.00">data: 0</text>
<polyline fill="none" stroke="black" points="659,-387.5 659,-479.5"/>
<text text-anchor="middle" x="706" y="-429.8" font-family="Times New Roman,serif" font-size="14.00">type : variable</text>
<polyline fill="none" stroke="black" points="753,-387.5 753,-479.5"/>
<text text-anchor="middle" x="812.5" y="-464.3" font-family="Times New Roman,serif" font-size="14.00">parent: 009A4430</text>
<polyline fill="none" stroke="black" points="753,-456.5 872,-456.5"/>
<text text-anchor="middle" x="812.5" y="-441.3" font-family="Times New Roman,serif" font-size="14.00">pointer: 009A4410</text>
<polyline fill="none" stroke="black" points="753,-433.5 872,-433.5"/>
<text text-anchor="middle" x="812.5" y="-418.3" font-family="Times New Roman,serif" font-size="14.00">left: 00000000</text>
<polyline fill="none" stroke="black" points="753,-410.5 872,-410.5"/>
<text text-anchor="middle" x="812.5" y="-395.3" font-family="Times New Roman,serif" font-size="14.00">right: 00000000</text>
</g>
<!-- node009A4430&#45;&gt;node009A4410 -->
<g id="edge15" class="edge">
<title>node009A4430&#45;&gt;node009A4410</title>
<path fill="none" stroke="red" d="M828.56,-516.37C817,-506.75 804.94,-496.52 793.55,-486.67"/>
<polygon fill="red" stroke="red" points="795.63,-483.83 785.78,-479.92 791.03,-489.12 795.63,-483.83"/>
</g>
<!-- node009A42D8 -->
<g id="node10" class="node">
<title>node009A42D8</title>
<path fill="pink" stroke="black" d="M902.5,-387.5C902.5,-387.5 1147.5,-387.5 1147.5,-387.5 1153.5,-387.5 1159.5,-393.5 1159.5,-399.5 1159.5,-399.5 1159.5,-467.5 1159.5,-467.5 1159.5,-473.5 1153.5,-479.5 1147.5,-479.5 1147.5,-479.5 902.5,-479.5 902.5,-479.5 896.5,-479.5 890.5,-473.5 890.5,-467.5 890.5,-467.5 890.5,-399.5 890.5,-399.5 890.5,-393.5 896.5,-387.5 902.5,-387.5"/>
<text text-anchor="middle" x="917" y="-429.8" font-family="Times New Roman,serif" font-size="14.00">data: 1</text>
<polyline fill="none" stroke="black" points="943.5,-387.5 943.5,-479.5"/>
<text text-anchor="middle" x="990.5" y="-429.8" font-family="Times New Roman,serif" font-size="14.00">type : variable</text>
<polyline fill="none" stroke="black" points="1037.5,-387.5 1037.5,-479.5"/>
<text text-anchor="middle" x="1098.5" y="-464.3" font-family="Times New Roman,serif" font-size="14.00">parent: 009A4430</text>
<polyline fill="none" stroke="black" points="1037.5,-456.5 1159.5,-456.5"/>
<text text-anchor="middle" x="1098.5" y="-441.3" font-family="Times New Roman,serif" font-size="14.00">pointer: 009A42D8</text>
<polyline fill="none" stroke="black" points="1037.5,-433.5 1159.5,-433.5"/>
<text text-anchor="middle" x="1098.5" y="-418.3" font-family="Times New Roman,serif" font-size="14.00">left: 00000000</text>
<polyline fill="none" stroke="black" points="1037.5,-410.5 1159.5,-410.5"/>
<text text-anchor="middle" x="1098.5" y="-395.3" font-family="Times New Roman,serif" font-size="14.00">right: 00000000</text>
</g>
<!-- node009A4430&#45;&gt;node009A42D8 -->
<g id="edge17" class="edge">
<title>node009A4430&#45;&gt;node009A42D8</title>
<path fill="none" stroke="red" d="M930.19,-516.37C940.29,-506.75 951.27,-496.52 962.07,-486.67"/>
<polygon fill="red" stroke="red" points="964.46,-489.23 969.51,-479.92 959.75,-484.05 964.46,-489.23"/>
</g>
<!-- node009A4410&#45;&gt;node009A4430 -->
<g id="edge18" class="edge">
<title>node009A4410&#45;&gt;node009A4430</title>
<path fill="none" stroke="yellow" d="M798.53,-479.7C810.16,-489.38 822.29,-499.68 833.74,-509.58"/>
<polygon fill="yellow" stroke="yellow" points="831.7,-512.45 841.54,-516.37 836.29,-507.16 831.7,-512.45"/>
</g>
<!-- node009A42D8&#45;&gt;node009A4430 -->
<g id="edge19" class="edge">
<title>node009A42D8&#45;&gt;node009A4430</title>
<path fill="none" stroke="yellow" d="M982.51,-479.92C972.4,-489.54 961.41,-499.78 950.61,-509.62"/>
<polygon fill="yellow" stroke="yellow" points="948.23,-507.05 943.18,-516.37 952.94,-512.24 948.23,-507.05"/>
</g>
<!-- node009A4498&#45;&gt;node009A43F0 -->
<g id="edge21" class="edge">
<title>node009A4498&#45;&gt;node009A43F0</title>
<path fill="none" stroke="yellow" d="M1178.45,-608.54C1137.49,-620.46 1092.9,-633.33 1051.22,-645.26"/>
<polygon fill="yellow" stroke="yellow" points="1050.19,-641.92 1041.53,-648.03 1052.11,-648.65 1050.19,-641.92"/>
</g>
<!-- node009A44D8 -->
<g id="node12" class="node">
<title>node009A44D8</title>
<path fill="lightgreen" stroke="black" d="M1190,-387.5C1190,-387.5 1466,-387.5 1466,-387.5 1472,-387.5 1478,-393.5 1478,-399.5 1478,-399.5 1478,-467.5 1478,-467.5 1478,-473.5 1472,-479.5 1466,-479.5 1466,-479.5 1190,-479.5 1190,-479.5 1184,-479.5 1178,-473.5 1178,-467.5 1178,-467.5 1178,-399.5 1178,-399.5 1178,-393.5 1184,-387.5 1190,-387.5"/>
<text text-anchor="middle" x="1218" y="-429.8" font-family="Times New Roman,serif" font-size="14.00">data: minus</text>
<polyline fill="none" stroke="black" points="1258,-387.5 1258,-479.5"/>
<text text-anchor="middle" x="1307" y="-452.8" font-family="Times New Roman,serif" font-size="14.00">type : operator</text>
<polyline fill="none" stroke="black" points="1258,-433.5 1356,-433.5"/>
<text text-anchor="middle" x="1307" y="-406.8" font-family="Times New Roman,serif" font-size="14.00">op_code : 2</text>
<polyline fill="none" stroke="black" points="1356,-387.5 1356,-479.5"/>
<text text-anchor="middle" x="1417" y="-464.3" font-family="Times New Roman,serif" font-size="14.00">parent: 009A4498</text>
<polyline fill="none" stroke="black" points="1356,-456.5 1478,-456.5"/>
<text text-anchor="middle" x="1417" y="-441.3" font-family="Times New Roman,serif" font-size="14.00">pointer: 009A44D8</text>
<polyline fill="none" stroke="black" points="1356,-433.5 1478,-433.5"/>
<text text-anchor="middle" x="1417" y="-418.3" font-family="Times New Roman,serif" font-size="14.00">left: 009A44B8</text>
<polyline fill="none" stroke="black" points="1356,-410.5 1478,-410.5"/>
<text text-anchor="middle" x="1417" y="-395.3" font-family="Times New Roman,serif" font-size="14.00">right: 009A44F8</text>
</g>
<!-- node009A4498&#45;&gt;node009A44D8 -->
<g id="edge20" class="edge">
<title>node009A4498&#45;&gt;node009A44D8</title>
<path fill="none" stroke="red" d="M1321.51,-516.37C1321.26,-507.86 1321.19,-498.87 1321.3,-490.09"/>
<polygon fill="red" stroke="red" points="1324.8,-489.98 1321.5,-479.92 1317.8,-489.84 1324.8,-489.98"/>
</g>
<!-- node009A04B0 -->
<g id="node15" class="node">
<title>node009A04B0</title>
<path fill="pink" stroke="black" d="M1508,-387.5C1508,-387.5 1792,-387.5 1792,-387.5 1798,-387.5 1804,-393.5 1804,-399.5 1804,-399.5 1804,-467.5 1804,-467.5 1804,-473.5 1798,-479.5 1792,-479.5 1792,-479.5 1508,-479.5 1508,-479.5 1502,-479.5 1496,-473.5 1496,-467.5 1496,-467.5 1496,-399.5 1496,-399.5 1496,-393.5 1502,-387.5 1508,-387.5"/>
<text text-anchor="middle" x="1521" y="-429.8" font-family="Times New Roman,serif" font-size="14.00">data: ;</text>
<polyline fill="none" stroke="black" points="1546,-387.5 1546,-479.5"/>
<text text-anchor="middle" x="1614" y="-429.8" font-family="Times New Roman,serif" font-size="14.00">type : END OF LINE</text>
<polyline fill="none" stroke="black" points="1682,-387.5 1682,-479.5"/>
<text text-anchor="middle" x="1743" y="-464.3" font-family="Times New Roman,serif" font-size="14.00">parent: 009A4498</text>
<polyline fill="none" stroke="black" points="1682,-456.5 1804,-456.5"/>
<text text-anchor="middle" x="1743" y="-441.3" font-family="Times New Roman,serif" font-size="14.00">pointer: 009A04B0</text>
<polyline fill="none" stroke="black" points="1682,-433.5 1804,-433.5"/>
<text text-anchor="middle" x="1743" y="-418.3" font-family="Times New Roman,serif" font-size="14.00">left: 009AA560</text>
<polyline fill="none" stroke="black" points="1682,-410.5 1804,-410.5"/>
<text text-anchor="middle" x="1743" y="-395.3" font-family="Times New Roman,serif" font-size="14.00">right: 00000000</text>
</g>
<!-- node009A4498&#45;&gt;node009A04B0 -->
<g id="edge22" class="edge">
<title>node009A4498&#45;&gt;node009A04B0</title>
<path fill="none" stroke="red" d="M1435.94,-516.37C1462.83,-505.64 1491.95,-494.14 1519.79,-483.26"/>
<polygon fill="red" stroke="red" points="1521.13,-486.49 1529.17,-479.59 1518.59,-479.97 1521.13,-486.49"/>
</g>
<!-- node009A44D8&#45;&gt;node009A4498 -->
<g id="edge24" class="edge">
<title>node009A44D8&#45;&gt;node009A4498</title>
<path fill="none" stroke="yellow" d="M1334.5,-479.92C1334.74,-488.43 1334.81,-497.42 1334.7,-506.2"/>
<polygon fill="yellow" stroke="yellow" points="1331.2,-506.3 1334.49,-516.37 1338.2,-506.44 1331.2,-506.3"/>
</g>
<!-- node009A44B8 -->
<g id="node13" class="node">
<title>node009A44B8</title>
<path fill="lightblue" stroke="black" d="M873.5,-258.5C873.5,-258.5 1152.5,-258.5 1152.5,-258.5 1158.5,-258.5 1164.5,-264.5 1164.5,-270.5 1164.5,-270.5 1164.5,-338.5 1164.5,-338.5 1164.5,-344.5 1158.5,-350.5 1152.5,-350.5 1152.5,-350.5 873.5,-350.5 873.5,-350.5 867.5,-350.5 861.5,-344.5 861.5,-338.5 861.5,-338.5 861.5,-270.5 861.5,-270.5 861.5,-264.5 867.5,-258.5 873.5,-258.5"/>
<text text-anchor="middle" x="888" y="-300.8" font-family="Times New Roman,serif" font-size="14.00">data: 1</text>
<polyline fill="none" stroke="black" points="914.5,-258.5 914.5,-350.5"/>
<text text-anchor="middle" x="978.5" y="-300.8" font-family="Times New Roman,serif" font-size="14.00">type : const number</text>
<polyline fill="none" stroke="black" points="1042.5,-258.5 1042.5,-350.5"/>
<text text-anchor="middle" x="1103.5" y="-335.3" font-family="Times New Roman,serif" font-size="14.00">parent: 009A44D8</text>
<polyline fill="none" stroke="black" points="1042.5,-327.5 1164.5,-327.5"/>
<text text-anchor="middle" x="1103.5" y="-312.3" font-family="Times New Roman,serif" font-size="14.00">pointer: 009A44B8</text>
<polyline fill="none" stroke="black" points="1042.5,-304.5 1164.5,-304.5"/>
<text text-anchor="middle" x="1103.5" y="-289.3" font-family="Times New Roman,serif" font-size="14.00">left: 00000000</text>
<polyline fill="none" stroke="black" points="1042.5,-281.5 1164.5,-281.5"/>
<text text-anchor="middle" x="1103.5" y="-266.3" font-family="Times New Roman,serif" font-size="14.00">right: 00000000</text>
</g>
<!-- node009A44D8&#45;&gt;node009A44B8 -->
<g id="edge23" class="edge">
<title>node009A44D8&#45;&gt;node009A44B8</title>
<path fill="none" stroke="red" d="M1209.56,-387.37C1182.76,-376.68 1154.35,-365.24 1127.7,-354.4"/>
<polygon fill="red" stroke="red" points="1128.94,-351.13 1118.36,-350.59 1126.3,-357.61 1128.94,-351.13"/>
</g>
<!-- node009A44F8 -->
<g id="node14" class="node">
<title>node009A44F8</title>
<path fill="lightblue" stroke="black" d="M1195,-258.5C1195,-258.5 1473,-258.5 1473,-258.5 1479,-258.5 1485,-264.5 1485,-270.5 1485,-270.5 1485,-338.5 1485,-338.5 1485,-344.5 1479,-350.5 1473,-350.5 1473,-350.5 1195,-350.5 1195,-350.5 1189,-350.5 1183,-344.5 1183,-338.5 1183,-338.5 1183,-270.5 1183,-270.5 1183,-264.5 1189,-258.5 1195,-258.5"/>
<text text-anchor="middle" x="1209.5" y="-300.8" font-family="Times New Roman,serif" font-size="14.00">data: 2</text>
<polyline fill="none" stroke="black" points="1236,-258.5 1236,-350.5"/>
<text text-anchor="middle" x="1300" y="-300.8" font-family="Times New Roman,serif" font-size="14.00">type : const number</text>
<polyline fill="none" stroke="black" points="1364,-258.5 1364,-350.5"/>
<text text-anchor="middle" x="1424.5" y="-335.3" font-family="Times New Roman,serif" font-size="14.00">parent: 009A44D8</text>
<polyline fill="none" stroke="black" points="1364,-327.5 1485,-327.5"/>
<text text-anchor="middle" x="1424.5" y="-312.3" font-family="Times New Roman,serif" font-size="14.00">pointer: 009A44F8</text>
<polyline fill="none" stroke="black" points="1364,-304.5 1485,-304.5"/>
<text text-anchor="middle" x="1424.5" y="-289.3" font-family="Times New Roman,serif" font-size="14.00">left: 00000000</text>
<polyline fill="none" stroke="black" points="1364,-281.5 1485,-281.5"/>
<text text-anchor="middle" x="1424.5" y="-266.3" font-family="Times New Roman,serif" font-size="14.00">right: 00000000</text>
</g>
<!-- node009A44D8&#45;&gt;node009A44F8 -->
<g id="edge25" class="edge">
<title>node009A44D8&#45;&gt;node009A44F8</title>
<path fill="none" stroke="red" d="M1323.64,-387.37C1323.8,-378.86 1324.15,-369.87 1324.67,-361.09"/>
<polygon fill="red" stroke="red" points="1328.18,-361.13 1325.35,-350.92 1321.19,-360.66 1328.18,-361.13"/>
</g>
<!-- node009A44B8&#45;&gt;node009A44D8 -->
<g id="edge26" class="edge">
<title>node009A44B8&#45;&gt;node009A44D8</title>
<path fill="none" stroke="yellow" d="M1131.34,-350.59C1158.14,-361.28 1186.55,-372.72 1213.2,-383.56"/>
<polygon fill="yellow" stroke="yellow" points="1211.97,-386.84 1222.55,-387.37 1214.61,-380.35 1211.97,-386.84"/>
</g>
<!-- node009A44F8&#45;&gt;node009A44D8 -->
<g id="edge27" class="edge">
<title>node009A44F8&#45;&gt;node009A44D8</title>
<path fill="none" stroke="yellow" d="M1338.35,-350.92C1338.19,-359.43 1337.84,-368.42 1337.31,-377.2"/>
<polygon fill="yellow" stroke="yellow" points="1333.81,-377.15 1336.62,-387.37 1340.79,-377.63 1333.81,-377.15"/>
</g>
<!-- node009A04B0&#45;&gt;node009A4498 -->
<g id="edge29" class="edge">
<title>node009A04B0&#45;&gt;node009A4498</title>
<path fill="none" stroke="yellow" d="M1542.16,-479.59C1515.27,-490.32 1486.16,-501.82 1458.31,-512.7"/>
<polygon fill="yellow" stroke="yellow" points="1456.97,-509.47 1448.92,-516.37 1459.51,-515.99 1456.97,-509.47"/>
</g>
<!-- node009AA560 -->
<g id="node16" class="node">
<title>node009AA560</title>
<path fill="lightgreen" stroke="black" d="M1520,-258.5C1520,-258.5 1780,-258.5 1780,-258.5 1786,-258.5 1792,-264.5 1792,-270.5 1792,-270.5 1792,-338.5 1792,-338.5 1792,-344.5 1786,-350.5 1780,-350.5 1780,-350.5 1520,-350.5 1520,-350.5 1514,-350.5 1508,-344.5 1508,-338.5 1508,-338.5 1508,-270.5 1508,-270.5 1508,-264.5 1514,-258.5 1520,-258.5"/>
<text text-anchor="middle" x="1540" y="-300.8" font-family="Times New Roman,serif" font-size="14.00">data: div</text>
<polyline fill="none" stroke="black" points="1572,-258.5 1572,-350.5"/>
<text text-anchor="middle" x="1621" y="-323.8" font-family="Times New Roman,serif" font-size="14.00">type : operator</text>
<polyline fill="none" stroke="black" points="1572,-304.5 1670,-304.5"/>
<text text-anchor="middle" x="1621" y="-277.8" font-family="Times New Roman,serif" font-size="14.00">op_code : 4</text>
<polyline fill="none" stroke="black" points="1670,-258.5 1670,-350.5"/>
<text text-anchor="middle" x="1731" y="-335.3" font-family="Times New Roman,serif" font-size="14.00">parent: 009A04B0</text>
<polyline fill="none" stroke="black" points="1670,-327.5 1792,-327.5"/>
<text text-anchor="middle" x="1731" y="-312.3" font-family="Times New Roman,serif" font-size="14.00">pointer: 009AA560</text>
<polyline fill="none" stroke="black" points="1670,-304.5 1792,-304.5"/>
<text text-anchor="middle" x="1731" y="-289.3" font-family="Times New Roman,serif" font-size="14.00">left: 009AA3C0</text>
<polyline fill="none" stroke="black" points="1670,-281.5 1792,-281.5"/>
<text text-anchor="middle" x="1731" y="-266.3" font-family="Times New Roman,serif" font-size="14.00">right: 009AA340</text>
</g>
<!-- node009A04B0&#45;&gt;node009AA560 -->
<g id="edge28" class="edge">
<title>node009A04B0&#45;&gt;node009AA560</title>
<path fill="none" stroke="red" d="M1643.51,-387.37C1643.26,-378.86 1643.19,-369.87 1643.3,-361.09"/>
<polygon fill="red" stroke="red" points="1646.8,-360.98 1643.5,-350.92 1639.8,-360.84 1646.8,-360.98"/>
</g>
<!-- node009AA560&#45;&gt;node009A04B0 -->
<g id="edge31" class="edge">
<title>node009AA560&#45;&gt;node009A04B0</title>
<path fill="none" stroke="yellow" d="M1656.5,-350.92C1656.74,-359.43 1656.81,-368.42 1656.7,-377.2"/>
<polygon fill="yellow" stroke="yellow" points="1653.2,-377.3 1656.49,-387.37 1660.2,-377.44 1653.2,-377.3"/>
</g>
<!-- node009AA3C0 -->
<g id="node17" class="node">
<title>node009AA3C0</title>
<path fill="lightblue" stroke="black" d="M1351,-129.5C1351,-129.5 1633,-129.5 1633,-129.5 1639,-129.5 1645,-135.5 1645,-141.5 1645,-141.5 1645,-209.5 1645,-209.5 1645,-215.5 1639,-221.5 1633,-221.5 1633,-221.5 1351,-221.5 1351,-221.5 1345,-221.5 1339,-215.5 1339,-209.5 1339,-209.5 1339,-141.5 1339,-141.5 1339,-135.5 1345,-129.5 1351,-129.5"/>
<text text-anchor="middle" x="1365.5" y="-171.8" font-family="Times New Roman,serif" font-size="14.00">data: 1</text>
<polyline fill="none" stroke="black" points="1392,-129.5 1392,-221.5"/>
<text text-anchor="middle" x="1456" y="-171.8" font-family="Times New Roman,serif" font-size="14.00">type : const number</text>
<polyline fill="none" stroke="black" points="1520,-129.5 1520,-221.5"/>
<text text-anchor="middle" x="1582.5" y="-206.3" font-family="Times New Roman,serif" font-size="14.00">parent: 009AA560</text>
<polyline fill="none" stroke="black" points="1520,-198.5 1645,-198.5"/>
<text text-anchor="middle" x="1582.5" y="-183.3" font-family="Times New Roman,serif" font-size="14.00">pointer: 009AA3C0</text>
<polyline fill="none" stroke="black" points="1520,-175.5 1645,-175.5"/>
<text text-anchor="middle" x="1582.5" y="-160.3" font-family="Times New Roman,serif" font-size="14.00">left: 00000000</text>
<polyline fill="none" stroke="black" points="1520,-152.5 1645,-152.5"/>
<text text-anchor="middle" x="1582.5" y="-137.3" font-family="Times New Roman,serif" font-size="14.00">right: 00000000</text>
</g>
<!-- node009AA560&#45;&gt;node009AA3C0 -->
<g id="edge30" class="edge">
<title>node009AA560&#45;&gt;node009AA3C0</title>
<path fill="none" stroke="red" d="M1587.36,-258.37C1574.93,-248.6 1561.93,-238.2 1549.68,-228.2"/>
<polygon fill="red" stroke="red" points="1551.69,-225.33 1541.74,-221.7 1547.26,-230.75 1551.69,-225.33"/>
</g>
<!-- node009AA340 -->
<g id="node18" class="node">
<title>node009AA340</title>
<path fill="lightgreen" stroke="black" d="M1675,-129.5C1675,-129.5 1941,-129.5 1941,-129.5 1947,-129.5 1953,-135.5 1953,-141.5 1953,-141.5 1953,-209.5 1953,-209.5 1953,-215.5 1947,-221.5 1941,-221.5 1941,-221.5 1675,-221.5 1675,-221.5 1669,-221.5 1663,-215.5 1663,-209.5 1663,-209.5 1663,-141.5 1663,-141.5 1663,-135.5 1669,-129.5 1675,-129.5"/>
<text text-anchor="middle" x="1698" y="-171.8" font-family="Times New Roman,serif" font-size="14.00">data: plus</text>
<polyline fill="none" stroke="black" points="1733,-129.5 1733,-221.5"/>
<text text-anchor="middle" x="1782" y="-194.8" font-family="Times New Roman,serif" font-size="14.00">type : operator</text>
<polyline fill="none" stroke="black" points="1733,-175.5 1831,-175.5"/>
<text text-anchor="middle" x="1782" y="-148.8" font-family="Times New Roman,serif" font-size="14.00">op_code : 1</text>
<polyline fill="none" stroke="black" points="1831,-129.5 1831,-221.5"/>
<text text-anchor="middle" x="1892" y="-206.3" font-family="Times New Roman,serif" font-size="14.00">parent: 009AA560</text>
<polyline fill="none" stroke="black" points="1831,-198.5 1953,-198.5"/>
<text text-anchor="middle" x="1892" y="-183.3" font-family="Times New Roman,serif" font-size="14.00">pointer: 009AA340</text>
<polyline fill="none" stroke="black" points="1831,-175.5 1953,-175.5"/>
<text text-anchor="middle" x="1892" y="-160.3" font-family="Times New Roman,serif" font-size="14.00">left: 009AA320</text>
<polyline fill="none" stroke="black" points="1831,-152.5 1953,-152.5"/>
<text text-anchor="middle" x="1892" y="-137.3" font-family="Times New Roman,serif" font-size="14.00">right: 009AA300</text>
</g>
<!-- node009AA560&#45;&gt;node009AA340 -->
<g id="edge32" class="edge">
<title>node009AA560&#45;&gt;node009AA340</title>
<path fill="none" stroke="red" d="M1699.66,-258.37C1711.64,-248.51 1724.66,-238 1737.39,-227.92"/>
<polygon fill="red" stroke="red" points="1739.59,-230.64 1745.27,-221.7 1735.25,-225.15 1739.59,-230.64"/>
</g>
<!-- node009AA3C0&#45;&gt;node009AA560 -->
<g id="edge33" class="edge">
<title>node009AA3C0&#45;&gt;node009AA560</title>
<path fill="none" stroke="yellow" d="M1554.73,-221.7C1567.16,-231.47 1580.15,-241.87 1592.41,-251.87"/>
<polygon fill="yellow" stroke="yellow" points="1590.39,-254.74 1600.34,-258.37 1594.82,-249.32 1590.39,-254.74"/>
</g>
<!-- node009AA340&#45;&gt;node009AA560 -->
<g id="edge35" class="edge">
<title>node009AA340&#45;&gt;node009AA560</title>
<path fill="none" stroke="yellow" d="M1758.26,-221.7C1746.27,-231.56 1733.25,-242.07 1720.52,-252.15"/>
<polygon fill="yellow" stroke="yellow" points="1718.33,-249.43 1712.64,-258.37 1722.66,-254.92 1718.33,-249.43"/>
</g>
<!-- node009AA320 -->
<g id="node19" class="node">
<title>node009AA320</title>
<path fill="lightblue" stroke="black" d="M1516.5,-0.5C1516.5,-0.5 1795.5,-0.5 1795.5,-0.5 1801.5,-0.5 1807.5,-6.5 1807.5,-12.5 1807.5,-12.5 1807.5,-80.5 1807.5,-80.5 1807.5,-86.5 1801.5,-92.5 1795.5,-92.5 1795.5,-92.5 1516.5,-92.5 1516.5,-92.5 1510.5,-92.5 1504.5,-86.5 1504.5,-80.5 1504.5,-80.5 1504.5,-12.5 1504.5,-12.5 1504.5,-6.5 1510.5,-0.5 1516.5,-0.5"/>
<text text-anchor="middle" x="1531" y="-42.8" font-family="Times New Roman,serif" font-size="14.00">data: 3</text>
<polyline fill="none" stroke="black" points="1557.5,-0.5 1557.5,-92.5"/>
<text text-anchor="middle" x="1621.5" y="-42.8" font-family="Times New Roman,serif" font-size="14.00">type : const number</text>
<polyline fill="none" stroke="black" points="1685.5,-0.5 1685.5,-92.5"/>
<text text-anchor="middle" x="1746.5" y="-77.3" font-family="Times New Roman,serif" font-size="14.00">parent: 009AA340</text>
<polyline fill="none" stroke="black" points="1685.5,-69.5 1807.5,-69.5"/>
<text text-anchor="middle" x="1746.5" y="-54.3" font-family="Times New Roman,serif" font-size="14.00">pointer: 009AA320</text>
<polyline fill="none" stroke="black" points="1685.5,-46.5 1807.5,-46.5"/>
<text text-anchor="middle" x="1746.5" y="-31.3" font-family="Times New Roman,serif" font-size="14.00">left: 00000000</text>
<polyline fill="none" stroke="black" points="1685.5,-23.5 1807.5,-23.5"/>
<text text-anchor="middle" x="1746.5" y="-8.3" font-family="Times New Roman,serif" font-size="14.00">right: 00000000</text>
</g>
<!-- node009AA340&#45;&gt;node009AA320 -->
<g id="edge34" class="edge">
<title>node009AA340&#45;&gt;node009AA320</title>
<path fill="none" stroke="red" d="M1747.49,-129.37C1735.52,-119.6 1723.02,-109.2 1711.23,-99.2"/>
<polygon fill="red" stroke="red" points="1713.49,-96.52 1703.61,-92.7 1708.95,-101.85 1713.49,-96.52"/>
</g>
<!-- node009AA300 -->
<g id="node20" class="node">
<title>node009AA300</title>
<path fill="pink" stroke="black" d="M1837.5,-0.5C1837.5,-0.5 2082.5,-0.5 2082.5,-0.5 2088.5,-0.5 2094.5,-6.5 2094.5,-12.5 2094.5,-12.5 2094.5,-80.5 2094.5,-80.5 2094.5,-86.5 2088.5,-92.5 2082.5,-92.5 2082.5,-92.5 1837.5,-92.5 1837.5,-92.5 1831.5,-92.5 1825.5,-86.5 1825.5,-80.5 1825.5,-80.5 1825.5,-12.5 1825.5,-12.5 1825.5,-6.5 1831.5,-0.5 1837.5,-0.5"/>
<text text-anchor="middle" x="1852" y="-42.8" font-family="Times New Roman,serif" font-size="14.00">data: 0</text>
<polyline fill="none" stroke="black" points="1878.5,-0.5 1878.5,-92.5"/>
<text text-anchor="middle" x="1925.5" y="-42.8" font-family="Times New Roman,serif" font-size="14.00">type : variable</text>
<polyline fill="none" stroke="black" points="1972.5,-0.5 1972.5,-92.5"/>
<text text-anchor="middle" x="2033.5" y="-77.3" font-family="Times New Roman,serif" font-size="14.00">parent: 009AA340</text>
<polyline fill="none" stroke="black" points="1972.5,-69.5 2094.5,-69.5"/>
<text text-anchor="middle" x="2033.5" y="-54.3" font-family="Times New Roman,serif" font-size="14.00">pointer: 009AA300</text>
<polyline fill="none" stroke="black" points="1972.5,-46.5 2094.5,-46.5"/>
<text text-anchor="middle" x="2033.5" y="-31.3" font-family="Times New Roman,serif" font-size="14.00">left: 00000000</text>
<polyline fill="none" stroke="black" points="1972.5,-23.5 2094.5,-23.5"/>
<text text-anchor="middle" x="2033.5" y="-8.3" font-family="Times New Roman,serif" font-size="14.00">right: 00000000</text>
</g>
<!-- node009AA340&#45;&gt;node009AA300 -->
<g id="edge36" class="edge">
<title>node009AA340&#45;&gt;node009AA300</title>
<path fill="none" stroke="red" d="M1855.52,-129.37C1866.93,-119.6 1879.33,-109.2 1891.48,-99.2"/>
<polygon fill="red" stroke="red" points="1893.89,-101.75 1899.41,-92.7 1889.45,-96.33 1893.89,-101.75"/>
</g>
<!-- node009AA320&#45;&gt;node009AA340 -->
<g id="edge37" class="edge">
<title>node009AA320&#45;&gt;node009AA340</title>
<path fill="none" stroke="yellow" d="M1716.59,-92.7C1728.57,-102.47 1741.07,-112.87 1752.85,-122.87"/>
<polygon fill="yellow" stroke="yellow" points="1750.59,-125.55 1760.48,-129.37 1755.13,-120.22 1750.59,-125.55"/>
</g>
<!-- node009AA300&#45;&gt;node009AA340 -->
<g id="edge38" class="edge">
<title>node009AA300&#45;&gt;node009AA340</title>
<path fill="none" stroke="yellow" d="M1912.39,-92.7C1900.98,-102.47 1888.58,-112.87 1876.44,-122.87"/>
<polygon fill="yellow" stroke="yellow" points="1874.03,-120.32 1868.51,-129.37 1878.46,-125.74 1874.03,-120.32"/>
</g>
</g>
</svg>
