<?xml version="1.0" encoding="UTF-8" standalone="no"?>
<!DOCTYPE svg PUBLIC "-//W3C//DTD SVG 1.1//EN"
 "http://www.w3.org/Graphics/SVG/1.1/DTD/svg11.dtd">
<!-- Generated by graphviz version 6.0.2 (20221011.1828)
 -->
<!-- Title: List Pages: 1 -->
<svg width="582pt" height="359pt"
 viewBox="0.00 0.00 581.50 359.00" xmlns="http://www.w3.org/2000/svg" xmlns:xlink="http://www.w3.org/1999/xlink">
<g id="graph0" class="graph" transform="scale(1 1) rotate(0) translate(4 355)">
<title>List</title>
<polygon fill="black" stroke="none" points="-4,4 -4,-355 577.5,-355 577.5,4 -4,4"/>
<!-- node00B84B80 -->
<g id="node1" class="node">
<title>node00B84B80</title>
<path fill="lightgreen" stroke="black" d="M159.5,-258.5C159.5,-258.5 405.5,-258.5 405.5,-258.5 411.5,-258.5 417.5,-264.5 417.5,-270.5 417.5,-270.5 417.5,-338.5 417.5,-338.5 417.5,-344.5 411.5,-350.5 405.5,-350.5 405.5,-350.5 159.5,-350.5 159.5,-350.5 153.5,-350.5 147.5,-344.5 147.5,-338.5 147.5,-338.5 147.5,-270.5 147.5,-270.5 147.5,-264.5 153.5,-258.5 159.5,-258.5"/>
<text text-anchor="middle" x="173" y="-300.8" font-family="Times New Roman,serif" font-size="14.00">data: &#45;</text>
<polyline fill="none" stroke="black" points="198.5,-258.5 198.5,-350.5"/>
<text text-anchor="middle" x="247.5" y="-323.8" font-family="Times New Roman,serif" font-size="14.00">type : operator</text>
<polyline fill="none" stroke="black" points="198.5,-304.5 296.5,-304.5"/>
<text text-anchor="middle" x="247.5" y="-277.8" font-family="Times New Roman,serif" font-size="14.00">op_code : 1</text>
<polyline fill="none" stroke="black" points="296.5,-258.5 296.5,-350.5"/>
<text text-anchor="middle" x="357" y="-335.3" font-family="Times New Roman,serif" font-size="14.00">parent: 00000000</text>
<polyline fill="none" stroke="black" points="296.5,-327.5 417.5,-327.5"/>
<text text-anchor="middle" x="357" y="-312.3" font-family="Times New Roman,serif" font-size="14.00">pointer: 00B84B80</text>
<polyline fill="none" stroke="black" points="296.5,-304.5 417.5,-304.5"/>
<text text-anchor="middle" x="357" y="-289.3" font-family="Times New Roman,serif" font-size="14.00">left: 00B84A90</text>
<polyline fill="none" stroke="black" points="296.5,-281.5 417.5,-281.5"/>
<text text-anchor="middle" x="357" y="-266.3" font-family="Times New Roman,serif" font-size="14.00">right: 00B84B40</text>
</g>
<!-- node00B84A90 -->
<g id="node2" class="node">
<title>node00B84A90</title>
<path fill="pink" stroke="black" d="M12,-129.5C12,-129.5 257,-129.5 257,-129.5 263,-129.5 269,-135.5 269,-141.5 269,-141.5 269,-209.5 269,-209.5 269,-215.5 263,-221.5 257,-221.5 257,-221.5 12,-221.5 12,-221.5 6,-221.5 0,-215.5 0,-209.5 0,-209.5 0,-141.5 0,-141.5 0,-135.5 6,-129.5 12,-129.5"/>
<text text-anchor="middle" x="26.5" y="-171.8" font-family="Times New Roman,serif" font-size="14.00">data: 0</text>
<polyline fill="none" stroke="black" points="53,-129.5 53,-221.5"/>
<text text-anchor="middle" x="100" y="-171.8" font-family="Times New Roman,serif" font-size="14.00">type : variable</text>
<polyline fill="none" stroke="black" points="147,-129.5 147,-221.5"/>
<text text-anchor="middle" x="208" y="-206.3" font-family="Times New Roman,serif" font-size="14.00">parent: 00B84B80</text>
<polyline fill="none" stroke="black" points="147,-198.5 269,-198.5"/>
<text text-anchor="middle" x="208" y="-183.3" font-family="Times New Roman,serif" font-size="14.00">pointer: 00B84A90</text>
<polyline fill="none" stroke="black" points="147,-175.5 269,-175.5"/>
<text text-anchor="middle" x="208" y="-160.3" font-family="Times New Roman,serif" font-size="14.00">left: 00000000</text>
<polyline fill="none" stroke="black" points="147,-152.5 269,-152.5"/>
<text text-anchor="middle" x="208" y="-137.3" font-family="Times New Roman,serif" font-size="14.00">right: 00000000</text>
</g>
<!-- node00B84B80&#45;&gt;node00B84A90 -->
<g id="edge1" class="edge">
<title>node00B84B80&#45;&gt;node00B84A90</title>
<path fill="none" stroke="red" d="M223.41,-258.37C211.93,-248.75 199.95,-238.52 188.64,-228.67"/>
<polygon fill="red" stroke="red" points="190.75,-225.87 180.92,-221.92 186.15,-231.14 190.75,-225.87"/>
</g>
<!-- node00B84B40 -->
<g id="node3" class="node">
<title>node00B84B40</title>
<path fill="lightgreen" stroke="black" d="M299.5,-129.5C299.5,-129.5 561.5,-129.5 561.5,-129.5 567.5,-129.5 573.5,-135.5 573.5,-141.5 573.5,-141.5 573.5,-209.5 573.5,-209.5 573.5,-215.5 567.5,-221.5 561.5,-221.5 561.5,-221.5 299.5,-221.5 299.5,-221.5 293.5,-221.5 287.5,-215.5 287.5,-209.5 287.5,-209.5 287.5,-141.5 287.5,-141.5 287.5,-135.5 293.5,-129.5 299.5,-129.5"/>
<text text-anchor="middle" x="321" y="-171.8" font-family="Times New Roman,serif" font-size="14.00">data: cos</text>
<polyline fill="none" stroke="black" points="354.5,-129.5 354.5,-221.5"/>
<text text-anchor="middle" x="403.5" y="-194.8" font-family="Times New Roman,serif" font-size="14.00">type : operator</text>
<polyline fill="none" stroke="black" points="354.5,-175.5 452.5,-175.5"/>
<text text-anchor="middle" x="403.5" y="-148.8" font-family="Times New Roman,serif" font-size="14.00">op_code : 5</text>
<polyline fill="none" stroke="black" points="452.5,-129.5 452.5,-221.5"/>
<text text-anchor="middle" x="513" y="-206.3" font-family="Times New Roman,serif" font-size="14.00">parent: 00B84B80</text>
<polyline fill="none" stroke="black" points="452.5,-198.5 573.5,-198.5"/>
<text text-anchor="middle" x="513" y="-183.3" font-family="Times New Roman,serif" font-size="14.00">pointer: 00B84B40</text>
<polyline fill="none" stroke="black" points="452.5,-175.5 573.5,-175.5"/>
<text text-anchor="middle" x="513" y="-160.3" font-family="Times New Roman,serif" font-size="14.00">left: 00000000</text>
<polyline fill="none" stroke="black" points="452.5,-152.5 573.5,-152.5"/>
<text text-anchor="middle" x="513" y="-137.3" font-family="Times New Roman,serif" font-size="14.00">right: 00B84B00</text>
</g>
<!-- node00B84B80&#45;&gt;node00B84B40 -->
<g id="edge2" class="edge">
<title>node00B84B80&#45;&gt;node00B84B40</title>
<path fill="none" stroke="red" d="M328.6,-258.37C339.7,-248.6 351.77,-238.2 363.6,-228.2"/>
<polygon fill="red" stroke="red" points="365.93,-230.82 371.33,-221.7 361.42,-225.46 365.93,-230.82"/>
</g>
<!-- node00B84A90&#45;&gt;node00B84B80 -->
<g id="edge3" class="edge">
<title>node00B84A90&#45;&gt;node00B84B80</title>
<path fill="none" stroke="yellow" d="M193.67,-221.7C205.22,-231.38 217.28,-241.68 228.65,-251.58"/>
<polygon fill="yellow" stroke="yellow" points="226.57,-254.41 236.4,-258.37 231.18,-249.15 226.57,-254.41"/>
</g>
<!-- node00B84B40&#45;&gt;node00B84B80 -->
<g id="edge4" class="edge">
<title>node00B84B40&#45;&gt;node00B84B80</title>
<path fill="none" stroke="yellow" d="M384.08,-221.92C373.02,-231.64 361.02,-241.97 349.27,-251.91"/>
<polygon fill="yellow" stroke="yellow" points="346.99,-249.25 341.59,-258.37 351.49,-254.61 346.99,-249.25"/>
</g>
<!-- node00B84B00 -->
<g id="node4" class="node">
<title>node00B84B00</title>
<path fill="pink" stroke="black" d="M308.5,-0.5C308.5,-0.5 552.5,-0.5 552.5,-0.5 558.5,-0.5 564.5,-6.5 564.5,-12.5 564.5,-12.5 564.5,-80.5 564.5,-80.5 564.5,-86.5 558.5,-92.5 552.5,-92.5 552.5,-92.5 308.5,-92.5 308.5,-92.5 302.5,-92.5 296.5,-86.5 296.5,-80.5 296.5,-80.5 296.5,-12.5 296.5,-12.5 296.5,-6.5 302.5,-0.5 308.5,-0.5"/>
<text text-anchor="middle" x="323" y="-42.8" font-family="Times New Roman,serif" font-size="14.00">data: 1</text>
<polyline fill="none" stroke="black" points="349.5,-0.5 349.5,-92.5"/>
<text text-anchor="middle" x="396.5" y="-42.8" font-family="Times New Roman,serif" font-size="14.00">type : variable</text>
<polyline fill="none" stroke="black" points="443.5,-0.5 443.5,-92.5"/>
<text text-anchor="middle" x="504" y="-77.3" font-family="Times New Roman,serif" font-size="14.00">parent: 00B84B40</text>
<polyline fill="none" stroke="black" points="443.5,-69.5 564.5,-69.5"/>
<text text-anchor="middle" x="504" y="-54.3" font-family="Times New Roman,serif" font-size="14.00">pointer: 00B84B00</text>
<polyline fill="none" stroke="black" points="443.5,-46.5 564.5,-46.5"/>
<text text-anchor="middle" x="504" y="-31.3" font-family="Times New Roman,serif" font-size="14.00">left: 00000000</text>
<polyline fill="none" stroke="black" points="443.5,-23.5 564.5,-23.5"/>
<text text-anchor="middle" x="504" y="-8.3" font-family="Times New Roman,serif" font-size="14.00">right: 00000000</text>
</g>
<!-- node00B84B40&#45;&gt;node00B84B00 -->
<g id="edge5" class="edge">
<title>node00B84B40&#45;&gt;node00B84B00</title>
<path fill="none" stroke="red" d="M424.01,-129.37C423.76,-120.86 423.69,-111.87 423.8,-103.09"/>
<polygon fill="red" stroke="red" points="427.3,-102.98 424,-92.92 420.3,-102.84 427.3,-102.98"/>
</g>
<!-- node00B84B00&#45;&gt;node00B84B40 -->
<g id="edge6" class="edge">
<title>node00B84B00&#45;&gt;node00B84B40</title>
<path fill="none" stroke="yellow" d="M437,-92.92C437.24,-101.43 437.31,-110.42 437.2,-119.2"/>
<polygon fill="yellow" stroke="yellow" points="433.7,-119.3 436.99,-129.37 440.7,-119.44 433.7,-119.3"/>
</g>
</g>
</svg>
